<svg id="Capa_1" data-name="Capa 1" xmlns="http://www.w3.org/2000/svg" viewBox="0 0 576.97 305.89"><defs><style>.cls-1{fill:#fff;}.cls-2{fill:#a87e7e;}.cls-3{font-size:169px;font-family:Consolas;}</style></defs><title>message</title><polygon class="cls-1" points="558.48 36.16 558.48 198.48 540.65 198.48 540.65 216.32 495.65 216.32 495.65 270.24 477.81 270.24 477.81 252.4 459.97 252.4 459.97 234.56 442.13 234.56 442.13 216.32 36.32 216.32 36.32 198.48 18.48 198.48 18.48 36.16 36.32 36.16 36.32 18.32 540.65 18.32 540.65 36.16 558.48 36.16"/><rect x="36.32" width="504.33" height="18.32"/><polygon points="540.65 216.32 540.65 234.64 514.13 234.64 514.13 305.89 495.65 305.89 495.65 288.08 477.81 288.08 477.81 270.24 495.65 270.24 495.65 216.32 540.65 216.32"/><rect x="18.48" y="18.32" width="17.84" height="17.84"/><rect x="540.65" y="18.32" width="17.83" height="17.84"/><rect x="540.65" y="198.48" width="17.83" height="17.84"/><rect x="459.97" y="252.4" width="17.84" height="17.84"/><polygon points="459.97 234.56 459.97 252.4 442.13 252.4 442.13 234.64 36.2 234.64 36.2 216.32 18.48 216.32 18.48 198.48 36.32 198.48 36.32 216.32 442.13 216.32 442.13 234.56 459.97 234.56"/><rect y="36.16" width="18.48" height="162.32"/><rect x="558.48" y="36.16" width="18.49" height="162.32"/><rect x="276.13" y="80.85" width="9" height="9"/><rect x="285.13" y="71.85" width="9" height="9"/><rect x="267.13" y="71.85" width="9" height="9"/><rect x="230.71" y="71.85" width="9" height="9"/><rect x="230.71" y="116.85" width="9" height="9"/><rect x="239.71" y="125.85" width="9" height="9"/><rect x="248.71" y="134.85" width="9" height="9"/><rect x="257.71" y="143.85" width="9" height="9"/><rect x="266.71" y="152.85" width="9" height="9"/><rect x="275.71" y="161.85" width="9" height="9"/><rect x="239.71" y="63.07" width="27.42" height="8.78"/><rect x="294.13" y="63.07" width="26.75" height="8.78"/><rect x="221.71" y="80.85" width="9" height="36"/><rect x="320.72" y="71.85" width="9" height="9"/><rect x="284.71" y="152.85" width="9" height="9"/><rect x="329.72" y="80.85" width="9" height="36"/><rect x="320.72" y="116.85" width="9" height="9"/><rect x="311.72" y="125.85" width="9" height="9"/><rect x="302.72" y="134.85" width="9" height="9"/><polygon class="cls-2" points="329.72 80.85 329.72 116.85 320.72 116.85 320.72 125.85 311.72 125.85 311.72 134.85 302.72 134.85 302.72 143.85 293.62 143.85 293.62 152.85 284.71 152.85 284.71 161.85 275.71 161.85 275.71 152.85 266.71 152.85 266.71 143.85 257.71 143.85 257.71 134.85 248.71 134.85 248.71 125.85 239.71 125.85 239.71 116.85 230.71 116.85 230.71 80.85 239.71 80.85 239.71 71.85 267.13 71.85 267.13 80.85 276.13 80.85 276.13 89.85 285.13 89.85 285.13 80.85 294.13 80.85 294.13 71.85 320.72 71.85 320.72 80.85 329.72 80.85"/><rect x="293.62" y="143.85" width="9.1" height="9"/><text class="cls-3" transform="translate(110.31 171.07)">I</text><text class="cls-3" transform="translate(368.81 171.07)">U</text></svg>